PathFileType	4	(X/Y/Z)	s01c0302.trc
DataRate	CameraRate	NumFrames	NumMarkers	Units	OrigDataRate	OrigDataStartFrame	OrigNumFrames
200	200	4	48	mm	200	750	2000
Frame#	Time	racr			lacr			c7			jug			rlel			rdr			llel			ldr			s2			lic			ric			lasi			rasi			rpsi			lpsi			rgt			lgt			rth1			rth2			rth3			rth4			rlfc			rsh1			rsh2			rsh3			rsh4			rlmal			rmmal			rcal			rtoe			rmt5			lth1			lth2			lth4			lth3			llfc			lsh1			lsh2			lsh3			lsh4			llmal			lmmal			lcal			ltoe			lmt5			SBIKE			LBIKE			RBIKE			
		X1	Y1	Z1	X2	Y2	Z2	X3	Y3	Z3	X4	Y4	Z4	X5	Y5	Z5	X6	Y6	Z6	X7	Y7	Z7	X8	Y8	Z8	X9	Y9	Z9	X10	Y10	Z10	X11	Y11	Z11	X12	Y12	Z12	X13	Y13	Z13	X14	Y14	Z14	X15	Y15	Z15	X16	Y16	Z16	X17	Y17	Z17	X18	Y18	Z18	X19	Y19	Z19	X20	Y20	Z20	X21	Y21	Z21	X22	Y22	Z22	X23	Y23	Z23	X24	Y24	Z24	X25	Y25	Z25	X26	Y26	Z26	X27	Y27	Z27	X28	Y28	Z28	X29	Y29	Z29	X30	Y30	Z30	X31	Y31	Z31	X32	Y32	Z32	X33	Y33	Z33	X34	Y34	Z34	X35	Y35	Z35	X36	Y36	Z36	X37	Y37	Z37	X38	Y38	Z38	X39	Y39	Z39	X40	Y40	Z40	X41	Y41	Z41	X42	Y42	Z42	X43	Y43	Z43	X44	Y44	Z44	X45	Y45	Z45	X46	Y46	Z46	X47	Y47	Z47	X48	Y48	Z48	
750	3.7500	667.899079	1399.994425	-130.979408	705.821664	1341.282344	-452.280581	651.926739	1454.430860	-300.649187	643.032660	1291.355128	-286.691490	615.787111	1121.495170	-25.292531	736.448884	876.611379	-86.265693	652.844952	1076.428118	-566.303423	747.306220	866.602051	-490.887166	142.122320	1222.770182	-347.770716	308.574831	1204.492798	-471.371011	262.883991	1261.018591	-150.020068	302.156773	1156.002709	-440.955114	297.701036	1207.582063	-171.942075	145.418987	1274.899419	-276.449977	154.466566	1260.292835	-380.893322	222.251202	1162.286184	-110.503797	217.948036	1070.285710	-479.957612	325.240840	1085.690030	-82.485503	401.908701	1054.166235	-83.423839	482.998871	1014.547084	-85.278231	425.237708	1101.949038	-104.041533	561.915017	935.309503	-104.645391	494.519504	854.627858	-77.926154	440.600595	787.957459	-78.902383	377.269494	726.201978	-90.395053	477.792627	756.362654	-114.211054	271.175690	633.994805	-111.087408	314.331948	624.827253	-186.925472	217.497029	629.967897	-165.693682	419.145920	449.735014	-148.275434	319.657562	493.049563	-79.451158	227.155377	954.676163	-480.680046	262.174835	872.534173	-476.290424	311.719252	892.548164	-478.059730	289.197136	793.373012	-458.128979	310.977096	671.225741	-439.653053	236.258499	587.796913	-469.101229	207.258126	507.510142	-458.949383	175.369888	428.482656	-443.459120	261.476779	490.277108	-436.345770	135.460664	310.409993	-425.405964	142.542798	264.967135	-362.651400	88.739198	315.746541	-380.667929	281.463867	115.546039	-381.971527	187.825516	166.414027	-448.210728	-230.711556	890.500024	-257.801344	-23.008710	80.218052	-456.833389	-23.081325	80.920756	-56.569639	
751	3.7550	665.761831	1401.324740	-129.279332	706.791585	1339.690735	-449.620779	651.286934	1454.365824	-299.047031	641.881253	1291.298784	-284.616984	616.316662	1123.130668	-24.784816	736.477811	878.221774	-84.915705	651.923413	1075.706348	-565.805080	747.176517	866.477255	-491.094422	141.447125	1223.067353	-350.659463	307.981206	1206.608099	-472.823807	261.728629	1261.295314	-150.109980	302.114011	1158.553739	-442.427088	296.983991	1208.174018	-172.369918	145.194788	1275.929769	-276.949754	153.924775	1261.812714	-381.339548	220.676798	1162.252127	-112.090433	218.052635	1072.496629	-481.279736	322.609845	1084.031888	-85.195562	399.259292	1052.228817	-85.243205	480.191360	1012.369912	-86.977741	422.458154	1100.342048	-105.316767	560.804425	932.017602	-106.888978	492.869102	850.329030	-79.766680	439.523453	783.244657	-80.448166	376.737162	721.010048	-91.261901	477.028640	751.632167	-115.380691	272.652393	626.637782	-110.347766	315.268078	619.312489	-186.874025	218.117134	620.431895	-164.588493	428.399655	450.829359	-147.899432	326.960102	488.186718	-78.923508	229.943042	956.452358	-481.694412	265.929831	874.710329	-476.638610	315.318690	895.275090	-478.402701	293.532938	795.890358	-458.445157	314.059313	673.015028	-440.454760	237.399998	590.829950	-469.531097	206.346845	511.399373	-459.081669	172.575856	433.201868	-443.379412	260.202135	492.891530	-436.376287	129.500238	316.191197	-425.458342	115.637994	284.407167	-377.455208	82.581138	322.265213	-380.411379	271.145598	118.163955	-382.017918	178.663353	171.022555	-448.130679	-230.802360	890.528014	-257.848372	-23.035339	80.217508	-456.843226	-23.120146	80.951458	-56.598075	
752	3.7600	663.889777	1402.247447	-127.694931	707.563479	1338.062349	-446.837613	650.661514	1454.262607	-297.429231	640.681877	1291.165548	-282.769658	616.988174	1124.515753	-24.967411	736.281557	878.633799	-84.886366	650.799396	1074.765019	-565.276637	747.010063	866.258753	-491.075001	140.839643	1223.201751	-353.109405	307.177613	1208.958087	-474.294907	260.744203	1261.394717	-150.245676	301.472633	1160.620289	-443.719484	296.483339	1208.589005	-172.603835	145.060131	1276.631802	-277.101416	153.344394	1263.184448	-381.450712	219.237820	1161.463657	-113.602779	218.278582	1074.640738	-482.440684	320.326350	1081.759536	-87.278586	396.859962	1049.455847	-87.047822	477.576551	1009.075104	-88.882637	420.552238	1097.634368	-106.095048	559.190487	927.243745	-108.906418	490.505544	844.928307	-81.457731	437.692133	777.533867	-81.981399	375.607437	714.503057	-92.274392	475.573425	745.868697	-116.394182	273.702979	618.528442	-109.893549	315.774851	612.879505	-186.874048	218.731615	609.495639	-163.329410	437.616192	451.013897	-147.782220	334.208518	482.596883	-78.176857	232.981460	958.022593	-482.540193	269.991479	876.979785	-476.881199	319.034357	898.152152	-478.321588	298.497911	798.398741	-458.696730	317.836040	674.699566	-441.460890	239.094304	594.018866	-469.948678	205.844684	515.508545	-459.197960	170.054060	438.350890	-443.331315	259.324932	495.619262	-436.445050	123.698986	322.488673	-425.418062	99.158149	288.151176	-367.571252	76.657775	329.260540	-380.202351	261.083545	121.374693	-381.953074	169.806701	176.173842	-448.019938	-230.907592	890.491684	-257.894290	-23.053387	80.216382	-456.854777	-23.142940	80.953218	-56.593616	
753	3.7650	662.383671	1402.739717	-126.252055	708.201936	1336.655479	-444.173004	650.041378	1454.110059	-295.825728	639.543319	1290.865342	-281.034368	617.731932	1125.297641	-25.586535	735.993044	878.871865	-85.073755	649.317510	1073.805352	-564.712941	746.850769	866.046274	-491.152751	140.294510	1223.182410	-355.133267	306.199089	1211.393771	-475.715101	260.274907	1261.194334	-150.341343	300.739046	1162.542912	-444.987209	296.077328	1208.547362	-173.100593	145.028152	1277.154217	-276.890357	152.787319	1264.400407	-381.385525	218.100848	1159.951435	-115.000611	218.533733	1076.636827	-483.583525	318.507861	1078.938288	-89.127559	394.859979	1045.904530	-88.715598	475.250856	1004.844610	-90.878180	419.046843	1094.253610	-106.757262	556.853728	921.369030	-111.256814	487.698649	838.715252	-83.296387	435.589824	770.907130	-83.437720	374.147089	707.127583	-93.129743	473.879240	739.072871	-117.294261	274.557300	609.155246	-109.515481	316.414012	604.826879	-187.116683	218.898425	597.738154	-162.413101	446.055736	450.656572	-147.511920	341.177927	476.329019	-77.483056	236.120887	959.349409	-483.260252	274.803916	878.984573	-476.941896	322.193521	900.801099	-477.538668	303.931575	800.876038	-458.925004	322.051456	676.307709	-442.217294	241.155251	597.243248	-470.150090	205.756717	519.775470	-459.386482	167.829197	443.792867	-443.433763	258.410539	498.579595	-436.358797	117.608959	330.142488	-426.591615	92.843215	279.626641	-338.979120	71.038451	336.729066	-380.057416	251.450025	125.246940	-381.960836	161.248848	181.856500	-447.895156	-230.945054	890.475444	-257.888424	-23.059127	80.210676	-456.861797	-23.157094	80.942007	-56.610552	
